<svg width="16" height="18" viewBox="0 0 16 18" fill="none" xmlns="http://www.w3.org/2000/svg">
<path d="M8 16C12.4183 16 16 12.4183 16 8C16 3.58172 12.4183 0 8 0C3.58172 0 0 3.58172 0 8C0 12.4183 3.58172 16 8 16Z" fill="#F7C523"/>
<path d="M8 16C12.4183 16 16 12.4183 16 8C16 3.58172 12.4183 0 8 0C3.58172 0 0 3.58172 0 8C0 12.4183 3.58172 16 8 16Z" fill="#F7C523"/>
<path d="M4.60094 2.07816C4.51821 2.07816 4.43799 2.03444 4.39506 1.95688C4.33223 1.84329 4.37328 1.70023 4.48688 1.6374C5.55596 1.04575 6.77091 0.733154 8.00028 0.733154C8.13002 0.733154 8.23531 0.838448 8.23531 0.968186C8.23531 1.09792 8.13002 1.20322 8.00028 1.20322C6.85035 1.20322 5.71421 1.4956 4.71454 2.0487C4.6785 2.0686 4.63949 2.07816 4.60094 2.07816Z" fill="white"/>
<path d="M3.74699 2.63471C3.67601 2.63471 3.60597 2.60275 3.55975 2.54196C3.48109 2.4387 3.50114 2.29126 3.60456 2.2126C3.66112 2.16951 3.71925 2.12673 3.77707 2.08537C3.88268 2.00984 4.02949 2.03429 4.10502 2.1399C4.18054 2.2455 4.1561 2.39232 4.05049 2.46784C3.99628 2.50654 3.94191 2.54666 3.8891 2.58693C3.84664 2.6192 3.79666 2.63487 3.74699 2.63487V2.63471Z" fill="white"/>
<path d="M8 0C3.58172 0 0 3.58172 0 8C0 12.4183 3.58172 16 8 16C12.4183 16 16 12.4183 16 8C16 3.58172 12.4183 0 8 0ZM8 15.5699C3.81926 15.5699 0.430108 12.1807 0.430108 8C0.430108 3.81926 3.81926 0.429951 8 0.429951C12.1807 0.429951 15.5701 3.8191 15.5701 8C15.5701 12.1809 12.1807 15.5699 8 15.5699Z" fill="#E5A31F"/>
<path d="M8.00023 14.4058C11.538 14.4058 14.4059 11.5378 14.4059 8.00006C14.4059 4.46229 11.538 1.59436 8.00023 1.59436C4.46246 1.59436 1.59453 4.46229 1.59453 8.00006C1.59453 11.5378 4.46246 14.4058 8.00023 14.4058Z" fill="#E5A31F"/>
<path d="M14.406 8.00008C14.406 11.5378 11.5379 14.4058 8.00009 14.4058C6.03319 14.4058 4.27343 13.5194 3.09843 12.1243C4.2128 13.0628 5.6515 13.6283 7.22261 13.6283C10.7605 13.6283 13.6285 10.7603 13.6285 7.22244C13.6285 5.65149 13.063 4.21263 12.1244 3.09827C13.5196 4.27342 14.406 6.03334 14.406 8.00008Z" fill="#C68718"/>
<g filter="url(#filter0_d_1_234)">
<path d="M11.4442 6.55669C11.4442 8.48743 9.87898 10.0526 7.94825 10.0526C6.01752 10.0526 4.45235 8.48743 4.45235 6.55669C4.45235 4.62596 6.01752 3.06079 7.94825 3.06079C9.87898 3.06079 11.4442 4.62596 11.4442 6.55669ZM6.20009 6.55669C6.20009 7.52218 6.98276 8.30486 7.94825 8.30486C8.91373 8.30486 9.69641 7.52218 9.69641 6.55669C9.69641 5.59121 8.91373 4.80853 7.94825 4.80853C6.98276 4.80853 6.20009 5.59121 6.20009 6.55669Z" fill="#F7C523"/>
<path d="M4.45255 6.30255C4.45255 5.81846 4.84498 5.42603 5.32907 5.42603C5.81316 5.42603 6.20559 5.81846 6.20559 6.30255V13.7321C6.20559 14.2162 5.81316 14.6086 5.32907 14.6086C4.84498 14.6086 4.45255 14.2162 4.45255 13.7321V6.30255Z" fill="#F7C523"/>
</g>
<defs>
<filter id="filter0_d_1_234" x="3.45235" y="2.06079" width="10.9918" height="15.5479" filterUnits="userSpaceOnUse" color-interpolation-filters="sRGB">
<feFlood flood-opacity="0" result="BackgroundImageFix"/>
<feColorMatrix in="SourceAlpha" type="matrix" values="0 0 0 0 0 0 0 0 0 0 0 0 0 0 0 0 0 0 127 0" result="hardAlpha"/>
<feOffset dx="1" dy="1"/>
<feGaussianBlur stdDeviation="1"/>
<feComposite in2="hardAlpha" operator="out"/>
<feColorMatrix type="matrix" values="0 0 0 0 0.776471 0 0 0 0 0.529412 0 0 0 0 0.0941176 0 0 0 1 0"/>
<feBlend mode="normal" in2="BackgroundImageFix" result="effect1_dropShadow_1_234"/>
<feBlend mode="normal" in="SourceGraphic" in2="effect1_dropShadow_1_234" result="shape"/>
</filter>
</defs>
</svg>
