<svg width="36" height="36" viewBox="0 0 36 36" fill="none" xmlns="http://www.w3.org/2000/svg">
<path d="M17.9996 19.4027C19.3689 19.4027 20.7074 18.9961 21.8459 18.2344C22.9844 17.4727 23.8717 16.39 24.3957 15.1234C24.9197 13.8567 25.0568 12.4629 24.7897 11.1182C24.5225 9.77348 23.8632 8.53829 22.895 7.56882C21.9268 6.59935 20.6932 5.93913 19.3502 5.67165C18.0073 5.40418 16.6153 5.54146 15.3503 6.06613C14.0852 6.5908 13.004 7.47931 12.2433 8.61929C11.4826 9.75927 11.0765 11.0995 11.0765 12.4706C11.0784 14.3085 11.8084 16.0706 13.1063 17.3703C14.4042 18.6699 16.1641 19.4008 17.9996 19.4027ZM17.9996 7.84916C18.9125 7.84916 19.8048 8.1202 20.5638 8.628C21.3228 9.13581 21.9143 9.85757 22.2637 10.702C22.613 11.5465 22.7044 12.4757 22.5263 13.3722C22.3482 14.2686 21.9087 15.0921 21.2632 15.7384C20.6177 16.3847 19.7953 16.8248 18.9 17.0032C18.0047 17.1815 17.0767 17.09 16.2334 16.7402C15.39 16.3904 14.6692 15.7981 14.1621 15.0381C13.6549 14.2781 13.3842 13.3846 13.3842 12.4706C13.3842 11.2449 13.8705 10.0694 14.736 9.20273C15.6016 8.33605 16.7755 7.84916 17.9996 7.84916Z" fill="#073763"/>
<path d="M18 21.6772C15.2468 21.6803 12.6072 22.7768 10.6603 24.7262C8.71351 26.6755 7.61844 29.3186 7.61539 32.0754C7.61539 32.3818 7.73695 32.6757 7.95334 32.8924C8.16973 33.109 8.46321 33.2308 8.76923 33.2308C9.07525 33.2308 9.36874 33.109 9.58513 32.8924C9.80151 32.6757 9.92308 32.3818 9.92308 32.0754C9.92308 29.9305 10.774 27.8734 12.2888 26.3567C13.8035 24.84 15.8579 23.9879 18 23.9879C20.1421 23.9879 22.1965 24.84 23.7113 26.3567C25.226 27.8734 26.0769 29.9305 26.0769 32.0754C26.0769 32.3818 26.1985 32.6757 26.4149 32.8924C26.6313 33.109 26.9248 33.2308 27.2308 33.2308C27.5368 33.2308 27.8303 33.109 28.0467 32.8924C28.2631 32.6757 28.3846 32.3818 28.3846 32.0754C28.3816 29.3186 27.2865 26.6755 25.3397 24.7262C23.3928 22.7768 20.7532 21.6803 18 21.6772Z" fill="#073763"/>
<rect x="0.5" y="0.5" width="35" height="35" rx="17.5" stroke="#073763"/>
</svg>
