<svg width="17" height="17" viewBox="0 0 17 17" fill="none" xmlns="http://www.w3.org/2000/svg">
<path d="M14.6031 13.8034H12.2028V10.0443C12.2028 9.14791 12.1868 7.99398 10.9544 7.99398C9.70423 7.99398 9.51293 8.97066 9.51293 9.97905V13.8031H7.11267V6.07295H9.41693V7.12937H9.44921C9.67981 6.73506 10.013 6.41069 10.4134 6.19079C10.8138 5.97089 11.2663 5.8637 11.7228 5.88064C14.1556 5.88064 14.6042 7.48089 14.6042 9.56272L14.6031 13.8034ZM4.40423 5.01634C3.63492 5.01647 3.01116 4.3929 3.01103 3.62359C3.01091 2.85428 3.63442 2.23051 4.40373 2.23039C5.17304 2.2302 5.7968 2.85377 5.79693 3.62308C5.797 3.99252 5.65031 4.34685 5.38913 4.60814C5.12795 4.86942 4.77367 5.01626 4.40423 5.01634ZM5.60443 13.8034H3.20157V6.07295H5.60436V13.8034L5.60443 13.8034ZM15.7998 0.00117905H1.99543C1.343 -0.00616157 0.807961 0.516478 0.799988 1.16891V15.0309C0.807708 15.6836 1.34269 16.2067 1.99537 16.1999H15.7998C16.4539 16.208 16.9909 15.6849 17 15.0309V1.16783C16.9907 0.514137 16.4536 -0.0084397 15.7998 0.000103268" fill="white"/>
</svg>
