<svg width="117" height="41" viewBox="0 0 117 41" fill="none" xmlns="http://www.w3.org/2000/svg">
<path d="M9.88627 17.318C9.68229 17.318 9.51798 17.2555 9.39333 17.1303C9.28001 17.0166 9.22335 16.8574 9.22335 16.6526V8.5993C9.23468 7.71207 9.44432 6.91584 9.85227 6.2106C10.2716 5.494 10.8325 4.93095 11.5351 4.52146C12.249 4.11197 13.0479 3.90722 13.9318 3.90722C14.8383 3.90722 15.6486 4.11765 16.3625 4.53852C17.0764 4.94801 17.6373 5.51106 18.0453 6.22767C18.4645 6.94427 18.6742 7.75757 18.6742 8.66755C18.6742 9.56615 18.4702 10.3738 18.0623 11.0904C17.6656 11.807 17.1217 12.3757 16.4305 12.7966C15.7392 13.2061 14.9573 13.4108 14.0847 13.4108C13.3255 13.4108 12.6343 13.2516 12.011 12.9331C11.3991 12.6032 10.9061 12.171 10.5322 11.6364V16.6526C10.5322 16.8574 10.4699 17.0166 10.3452 17.1303C10.2319 17.2555 10.0789 17.318 9.88627 17.318ZM13.9318 12.2165C14.589 12.2165 15.1783 12.0629 15.6995 11.7558C16.2208 11.4487 16.6288 11.0278 16.9234 10.4932C17.2294 9.9472 17.3823 9.33866 17.3823 8.66755C17.3823 7.98506 17.2294 7.37651 16.9234 6.8419C16.6288 6.30729 16.2208 5.88642 15.6995 5.57931C15.1783 5.26081 14.589 5.10157 13.9318 5.10157C13.2858 5.10157 12.7023 5.26081 12.181 5.57931C11.6597 5.88642 11.2518 6.30729 10.9571 6.8419C10.6625 7.37651 10.5152 7.98506 10.5152 8.66755C10.5152 9.33866 10.6625 9.9472 10.9571 10.4932C11.2518 11.0278 11.6597 11.4487 12.181 11.7558C12.7023 12.0629 13.2858 12.2165 13.9318 12.2165Z" fill="#073763"/>
<path d="M25.4739 13.4108C24.5673 13.4108 23.7571 13.2061 23.0432 12.7966C22.3293 12.3871 21.7683 11.824 21.3604 11.1074C20.9524 10.3908 20.7485 9.57753 20.7485 8.66755C20.7485 7.74619 20.9524 6.92721 21.3604 6.2106C21.7683 5.494 22.3293 4.93095 23.0432 4.52146C23.7571 4.11197 24.5673 3.90722 25.4739 3.90722C26.3804 3.90722 27.185 4.11197 27.8876 4.52146C28.6015 4.93095 29.1624 5.494 29.5704 6.2106C29.9783 6.92721 30.188 7.74619 30.1993 8.66755C30.1993 9.57753 29.9896 10.3908 29.5704 11.1074C29.1624 11.824 28.6015 12.3871 27.8876 12.7966C27.185 13.2061 26.3804 13.4108 25.4739 13.4108ZM25.4739 12.2165C26.1311 12.2165 26.7204 12.0629 27.2416 11.7558C27.7629 11.4487 28.1709 11.0278 28.4655 10.4932C28.7601 9.95858 28.9074 9.35003 28.9074 8.66755C28.9074 7.98506 28.7601 7.37651 28.4655 6.8419C28.1709 6.29591 27.7629 5.86936 27.2416 5.56224C26.7204 5.25513 26.1311 5.10157 25.4739 5.10157C24.8166 5.10157 24.2274 5.25513 23.7061 5.56224C23.1848 5.86936 22.7712 6.29591 22.4652 6.8419C22.1706 7.37651 22.0233 7.98506 22.0233 8.66755C22.0233 9.35003 22.1706 9.95858 22.4652 10.4932C22.7712 11.0278 23.1848 11.4487 23.7061 11.7558C24.2274 12.0629 24.8166 12.2165 25.4739 12.2165Z" fill="#073763"/>
<path d="M34.338 13.3255C34.1907 13.3255 34.0604 13.2857 33.9471 13.2061C33.8337 13.1264 33.7544 13.0241 33.7091 12.8989L31.0574 4.91388C30.9894 4.62952 30.9951 4.40771 31.0744 4.24846C31.1537 4.07784 31.3124 3.99253 31.5503 3.99253C31.6977 3.99253 31.828 4.03234 31.9413 4.11197C32.0546 4.19159 32.1396 4.31671 32.1963 4.48733L34.559 11.7387H34.185L36.3778 4.50439C36.4231 4.35652 36.4967 4.23709 36.5987 4.14609C36.712 4.04372 36.8537 3.99253 37.0237 3.99253C37.1936 3.99253 37.3296 4.03803 37.4316 4.12903C37.5449 4.22003 37.6243 4.34515 37.6696 4.50439L39.7603 11.5681H39.4714L41.7831 4.48733C41.8964 4.15746 42.106 3.99253 42.412 3.99253C42.6613 3.99253 42.8313 4.08922 42.9219 4.28259C43.0126 4.46458 43.0126 4.67501 42.9219 4.91388L40.2703 12.8989C40.2249 13.0241 40.1456 13.1264 40.0323 13.2061C39.9303 13.2857 39.8057 13.3255 39.6583 13.3255C39.511 13.3255 39.375 13.2857 39.2504 13.2061C39.1371 13.1264 39.0634 13.0241 39.0294 12.8989L36.8877 5.76699H37.0917L34.9499 12.8989C34.9046 13.0354 34.8253 13.1435 34.712 13.2231C34.5986 13.2914 34.474 13.3255 34.338 13.3255Z" fill="#073763"/>
<path d="M48.6962 13.4108C47.7783 13.4108 46.9624 13.2118 46.2485 12.8136C45.5459 12.4041 44.9906 11.8411 44.5827 11.1245C44.1861 10.4079 43.9878 9.5889 43.9878 8.66755C43.9878 7.73482 44.1747 6.91584 44.5487 6.2106C44.934 5.494 45.4609 4.93095 46.1295 4.52146C46.7981 4.11197 47.5686 3.90722 48.4412 3.90722C49.3024 3.90722 50.0503 4.10628 50.6849 4.50439C51.3308 4.89114 51.8295 5.43143 52.1807 6.12529C52.532 6.81915 52.7077 7.6097 52.7077 8.49692C52.7077 8.67892 52.651 8.82679 52.5377 8.94054C52.4244 9.04291 52.2771 9.0941 52.0958 9.0941H44.8716V8.00212H52.2317L51.5008 8.53105C51.5122 7.87131 51.3932 7.27983 51.1439 6.75659C50.8946 6.23335 50.5376 5.82386 50.073 5.52812C49.6197 5.23238 49.0758 5.08451 48.4412 5.08451C47.7953 5.08451 47.2287 5.23806 46.7414 5.54518C46.2541 5.8523 45.8745 6.27885 45.6026 6.82484C45.3419 7.35945 45.2116 7.97369 45.2116 8.66755C45.2116 9.3614 45.3589 9.97564 45.6536 10.5103C45.9595 11.0449 46.3731 11.4657 46.8944 11.7728C47.4157 12.08 48.0163 12.2335 48.6962 12.2335C49.1041 12.2335 49.5121 12.1653 49.92 12.0288C50.3393 11.8809 50.6736 11.6989 50.9229 11.4828C51.0476 11.3804 51.1892 11.3292 51.3478 11.3292C51.5065 11.3179 51.6425 11.3577 51.7558 11.4487C51.9031 11.5852 51.9768 11.733 51.9768 11.8923C51.9881 12.0515 51.9258 12.188 51.7898 12.3018C51.4158 12.6203 50.9399 12.8876 50.362 13.1037C49.784 13.3084 49.2288 13.4108 48.6962 13.4108Z" fill="#073763"/>
<path d="M55.4657 7.57557C55.4997 6.87034 55.681 6.23904 56.0097 5.68168C56.3496 5.12432 56.7859 4.68639 57.3185 4.3679C57.8624 4.0494 58.463 3.89016 59.1203 3.89016C59.6415 3.89016 60.0438 3.96409 60.3271 4.11197C60.6104 4.25984 60.7181 4.47596 60.6501 4.76033C60.6048 4.93095 60.5254 5.04469 60.4121 5.10157C60.3101 5.15844 60.1798 5.18119 60.0212 5.16982C59.8738 5.15844 59.7039 5.14707 59.5112 5.13569C58.8766 5.07882 58.31 5.14707 57.8114 5.34044C57.3242 5.52243 56.9332 5.8068 56.6386 6.19354C56.3553 6.58028 56.2136 7.04096 56.2136 7.57557H55.4657ZM55.5677 13.3255C55.3637 13.3255 55.2051 13.2686 55.0918 13.1549C54.9784 13.0411 54.9218 12.8819 54.9218 12.6771V4.64089C54.9218 4.43615 54.9784 4.2769 55.0918 4.16315C55.2051 4.0494 55.3637 3.99253 55.5677 3.99253C55.7717 3.99253 55.9303 4.0494 56.0436 4.16315C56.157 4.2769 56.2136 4.43615 56.2136 4.64089V12.6771C56.2136 12.8819 56.157 13.0411 56.0436 13.1549C55.9303 13.2686 55.7717 13.3255 55.5677 13.3255Z" fill="#073763"/>
<path d="M66.2419 13.4108C65.324 13.4108 64.5081 13.2118 63.7942 12.8136C63.0916 12.4041 62.5363 11.8411 62.1284 11.1245C61.7317 10.4079 61.5334 9.5889 61.5334 8.66755C61.5334 7.73482 61.7204 6.91584 62.0944 6.2106C62.4797 5.494 63.0066 4.93095 63.6752 4.52146C64.3438 4.11197 65.1143 3.90722 65.9869 3.90722C66.8481 3.90722 67.596 4.10628 68.2306 4.50439C68.8765 4.89114 69.3751 5.43143 69.7264 6.12529C70.0777 6.81915 70.2534 7.6097 70.2534 8.49692C70.2534 8.67892 70.1967 8.82679 70.0834 8.94054C69.9701 9.04291 69.8227 9.0941 69.6414 9.0941H62.4173V8.00212H69.7774L69.0465 8.53105C69.0578 7.87131 68.9389 7.27983 68.6895 6.75659C68.4402 6.23335 68.0833 5.82386 67.6187 5.52812C67.1654 5.23238 66.6215 5.08451 65.9869 5.08451C65.341 5.08451 64.7744 5.23806 64.2871 5.54518C63.7998 5.8523 63.4202 6.27885 63.1482 6.82484C62.8876 7.35945 62.7573 7.97369 62.7573 8.66755C62.7573 9.3614 62.9046 9.97564 63.1992 10.5103C63.5052 11.0449 63.9188 11.4657 64.4401 11.7728C64.9613 12.08 65.5619 12.2335 66.2419 12.2335C66.6498 12.2335 67.0578 12.1653 67.4657 12.0288C67.885 11.8809 68.2193 11.6989 68.4686 11.4828C68.5932 11.3804 68.7349 11.3292 68.8935 11.3292C69.0522 11.3179 69.1882 11.3577 69.3015 11.4487C69.4488 11.5852 69.5224 11.733 69.5224 11.8923C69.5338 12.0515 69.4715 12.188 69.3355 12.3018C68.9615 12.6203 68.4856 12.8876 67.9076 13.1037C67.3297 13.3084 66.7745 13.4108 66.2419 13.4108Z" fill="#073763"/>
<path d="M76.368 13.4108C75.4727 13.4108 74.6682 13.2061 73.9542 12.7966C73.2403 12.3757 72.6737 11.807 72.2545 11.0904C71.8465 10.3738 71.6425 9.56046 71.6425 8.65048C71.6425 7.75188 71.8409 6.94427 72.2375 6.22767C72.6454 5.51106 73.195 4.94801 73.8863 4.53852C74.5775 4.11765 75.3594 3.90722 76.232 3.90722C76.9912 3.90722 77.6768 4.07215 78.2887 4.40202C78.9006 4.72051 79.3936 5.14707 79.7675 5.68168V0.665421C79.7675 0.460676 79.8299 0.30143 79.9545 0.187683C80.0792 0.0625609 80.2378 0 80.4305 0C80.6231 0 80.7817 0.0625609 80.9064 0.187683C81.031 0.30143 81.0934 0.460676 81.0934 0.665421V8.71873C81.0707 9.60596 80.8497 10.4079 80.4305 11.1245C80.0225 11.8297 79.4616 12.3871 78.7477 12.7966C78.0451 13.2061 77.2518 13.4108 76.368 13.4108ZM76.368 12.2165C77.0252 12.2165 77.6088 12.0629 78.1187 11.7558C78.64 11.4373 79.048 11.0107 79.3426 10.4761C79.6485 9.94152 79.8015 9.33297 79.8015 8.65048C79.8015 7.97937 79.6485 7.37651 79.3426 6.8419C79.048 6.29591 78.64 5.86936 78.1187 5.56224C77.6088 5.25513 77.0252 5.10157 76.368 5.10157C75.722 5.10157 75.1384 5.25513 74.6172 5.56224C74.0959 5.86936 73.6823 6.29591 73.3763 6.8419C73.0704 7.37651 72.9174 7.97937 72.9174 8.65048C72.9174 9.33297 73.0704 9.94152 73.3763 10.4761C73.6823 11.0107 74.0959 11.4373 74.6172 11.7558C75.1384 12.0629 75.722 12.2165 76.368 12.2165Z" fill="#073763"/>
<path d="M93.8418 13.4108C92.9579 13.4108 92.159 13.2061 91.4451 12.7966C90.7425 12.3871 90.1816 11.8297 89.7623 11.1245C89.3543 10.4079 89.1447 9.60596 89.1334 8.71873V0.665421C89.1334 0.460676 89.19 0.30143 89.3034 0.187683C89.428 0.0625609 89.5923 0 89.7963 0C89.9889 0 90.1419 0.0625609 90.2552 0.187683C90.3799 0.30143 90.4422 0.460676 90.4422 0.665421V5.68168C90.8162 5.14707 91.3091 4.72051 91.921 4.40202C92.5443 4.07215 93.2355 3.90722 93.9948 3.90722C94.8673 3.90722 95.6492 4.11765 96.3405 4.53852C97.0317 4.94801 97.5757 5.51106 97.9723 6.22767C98.3802 6.94427 98.5842 7.75188 98.5842 8.65048C98.5842 9.56046 98.3745 10.3738 97.9553 11.0904C97.5473 11.807 96.9864 12.3757 96.2725 12.7966C95.5586 13.2061 94.7483 13.4108 93.8418 13.4108ZM93.8418 12.2165C94.499 12.2165 95.0883 12.0629 95.6096 11.7558C96.1308 11.4373 96.5388 11.0107 96.8334 10.4761C97.1394 9.94152 97.2924 9.33297 97.2924 8.65048C97.2924 7.97937 97.1394 7.37651 96.8334 6.8419C96.5388 6.29591 96.1308 5.86936 95.6096 5.56224C95.0883 5.25513 94.499 5.10157 93.8418 5.10157C93.1959 5.10157 92.6123 5.25513 92.091 5.56224C91.5697 5.86936 91.1618 6.29591 90.8672 6.8419C90.5725 7.37651 90.4252 7.97937 90.4252 8.65048C90.4252 9.33297 90.5725 9.94152 90.8672 10.4761C91.1618 11.0107 91.5697 11.4373 92.091 11.7558C92.6123 12.0629 93.1959 12.2165 93.8418 12.2165Z" fill="#073763"/>
<path d="M102.235 17.3863C102.144 17.3863 102.042 17.3635 101.929 17.318C101.543 17.1474 101.436 16.8744 101.606 16.4991L107.096 4.35083C107.266 3.98684 107.538 3.88447 107.912 4.04372C108.297 4.20296 108.405 4.47027 108.235 4.84564L102.728 16.9939C102.614 17.2555 102.45 17.3863 102.235 17.3863ZM104.121 13.0354C103.951 13.1151 103.793 13.1321 103.645 13.0866C103.498 13.0298 103.379 12.916 103.288 12.7454L99.498 4.8627C99.4186 4.69208 99.4073 4.53283 99.464 4.38496C99.5206 4.23709 99.634 4.12334 99.8039 4.04372C99.9739 3.96409 100.133 3.95272 100.28 4.00959C100.427 4.05509 100.541 4.16315 100.62 4.33377L104.342 12.2165C104.433 12.3871 104.461 12.5463 104.427 12.6942C104.393 12.8421 104.291 12.9558 104.121 13.0354Z" fill="#073763"/>
<path d="M0.91222 40.1642C0.647809 40.1642 0.429669 40.0779 0.257801 39.9054C0.0859338 39.7329 0 39.5139 0 39.2485V30.0321C0.0132206 28.997 0.257801 28.0615 0.733742 27.2254C1.2229 26.3894 1.87732 25.7325 2.697 25.2547C3.51668 24.777 4.44212 24.5381 5.47332 24.5381C6.51775 24.5381 7.4498 24.7836 8.26948 25.2747C9.10237 25.7524 9.75679 26.4093 10.2327 27.2453C10.7219 28.0681 10.9665 29.0103 10.9665 30.0719C10.9665 31.1203 10.7351 32.0625 10.2724 32.8986C9.82289 33.7346 9.20814 34.3915 8.42812 34.8692C7.64811 35.347 6.76894 35.5858 5.79062 35.5858C4.95772 35.5858 4.20415 35.4133 3.5299 35.0683C2.85565 34.7233 2.28716 34.2588 1.82444 33.6749V39.2485C1.82444 39.5139 1.73851 39.7329 1.56664 39.9054C1.40799 40.0779 1.18985 40.1642 0.91222 40.1642ZM5.47332 33.9536C6.17401 33.9536 6.80199 33.7877 7.35726 33.4559C7.92574 33.1109 8.36863 32.6464 8.68592 32.0625C9.01644 31.4654 9.1817 30.8018 9.1817 30.0719C9.1817 29.3288 9.01644 28.6653 8.68592 28.0814C8.36863 27.4842 7.92574 27.0197 7.35726 26.688C6.80199 26.3429 6.17401 26.1704 5.47332 26.1704C4.77263 26.1704 4.13804 26.3429 3.56956 26.688C3.01429 27.033 2.57801 27.4975 2.26072 28.0814C1.94343 28.6653 1.78478 29.3288 1.78478 30.0719C1.78478 30.8018 1.94343 31.4654 2.26072 32.0625C2.57801 32.6464 3.01429 33.1109 3.56956 33.4559C4.13804 33.7877 4.77263 33.9536 5.47332 33.9536Z" fill="#073763"/>
<path d="M16.4612 35.5062C15.9059 35.5062 15.4101 35.3536 14.9739 35.0484C14.5376 34.7432 14.1938 34.3251 13.9427 33.7943C13.7047 33.2502 13.5857 32.6265 13.5857 31.9232V20.8556C13.5857 20.5902 13.665 20.3778 13.8237 20.2186C13.9955 20.0461 14.2137 19.9598 14.4781 19.9598C14.7557 19.9598 14.9739 20.0461 15.1325 20.2186C15.3044 20.3778 15.3903 20.5902 15.3903 20.8556V31.9232C15.3903 32.4407 15.4895 32.8654 15.6878 33.1972C15.8993 33.5289 16.1571 33.6948 16.4612 33.6948H16.9569C17.2081 33.6948 17.4064 33.7811 17.5519 33.9536C17.6973 34.1128 17.77 34.3318 17.77 34.6105C17.77 34.8759 17.6576 35.0948 17.4329 35.2674C17.2214 35.4266 16.9437 35.5062 16.6 35.5062H16.4612Z" fill="#073763"/>
<path d="M24.4127 35.6058C23.4873 35.6058 22.661 35.4133 21.9339 35.0285C21.2067 34.6304 20.6317 34.0531 20.2086 33.2967C19.7855 32.5403 19.574 31.618 19.574 30.5298V25.5135C19.574 25.2614 19.6599 25.0491 19.8318 24.8765C20.0169 24.6908 20.235 24.5979 20.4862 24.5979C20.7506 24.5979 20.9688 24.6908 21.1406 24.8765C21.3257 25.0491 21.4183 25.2614 21.4183 25.5135V30.5298C21.4183 31.2995 21.5637 31.9365 21.8546 32.4407C22.1454 32.945 22.5354 33.3232 23.0246 33.5754C23.527 33.8142 24.0888 33.9337 24.7102 33.9337C25.3183 33.9337 25.8538 33.8142 26.3165 33.5754C26.7924 33.3365 27.1692 33.018 27.4469 32.6199C27.7377 32.2085 27.8831 31.7507 27.8831 31.2464H29.073C29.0466 32.0692 28.8284 32.8123 28.4186 33.4758C28.022 34.1394 27.4733 34.6635 26.7726 35.0484C26.0719 35.42 25.2853 35.6058 24.4127 35.6058ZM28.7954 35.5062C28.5309 35.5062 28.3128 35.42 28.1409 35.2475C27.9691 35.0749 27.8831 34.856 27.8831 34.5906V25.5135C27.8831 25.2481 27.9691 25.0292 28.1409 24.8566C28.3128 24.6841 28.5309 24.5979 28.7954 24.5979C29.0598 24.5979 29.2779 24.6841 29.4498 24.8566C29.6216 25.0292 29.7076 25.2481 29.7076 25.5135V34.5906C29.7076 34.856 29.6216 35.0749 29.4498 35.2475C29.2779 35.42 29.0598 35.5062 28.7954 35.5062Z" fill="#073763"/>
<path d="M37.3363 35.5062C36.662 35.5062 36.0539 35.3403 35.5118 35.0086C34.9698 34.6636 34.5467 34.2057 34.2427 33.6351C33.9386 33.0512 33.7865 32.3877 33.7865 31.6445V22.0698C33.7865 21.8044 33.8659 21.5855 34.0245 21.4129C34.1964 21.2404 34.4145 21.1542 34.6789 21.1542C34.9433 21.1542 35.1615 21.2404 35.3334 21.4129C35.5052 21.5855 35.5912 21.8044 35.5912 22.0698V31.6445C35.5912 32.2417 35.7564 32.7327 36.0869 33.1175C36.4174 33.5024 36.8339 33.6948 37.3363 33.6948H37.951C38.1758 33.6948 38.3609 33.7811 38.5063 33.9536C38.6649 34.1261 38.7443 34.3451 38.7443 34.6105C38.7443 34.8759 38.6451 35.0948 38.4468 35.2674C38.2617 35.4266 38.0171 35.5062 37.7131 35.5062H37.3363ZM32.7157 26.5884C32.4777 26.5884 32.2794 26.5154 32.1208 26.3695C31.9621 26.2235 31.8828 26.0377 31.8828 25.8121C31.8828 25.5732 31.9621 25.3808 32.1208 25.2348C32.2794 25.0889 32.4777 25.0159 32.7157 25.0159H37.4949C37.7329 25.0159 37.9312 25.0889 38.0898 25.2348C38.2485 25.3808 38.3278 25.5732 38.3278 25.8121C38.3278 26.0377 38.2485 26.2235 38.0898 26.3695C37.9312 26.5154 37.7329 26.5884 37.4949 26.5884H32.7157Z" fill="#073763"/>
<path d="M46.1485 35.5858C45.0908 35.5858 44.1455 35.3536 43.3126 34.8891C42.493 34.4114 41.8452 33.7612 41.3692 32.9384C40.9065 32.1023 40.6751 31.1469 40.6751 30.0719C40.6751 28.9838 40.9065 28.0283 41.3692 27.2055C41.8452 26.3695 42.493 25.7192 43.3126 25.2547C44.1455 24.777 45.0908 24.5381 46.1485 24.5381C47.2061 24.5381 48.1448 24.777 48.9644 25.2547C49.7973 25.7192 50.4452 26.3695 50.9079 27.2055C51.3838 28.0283 51.6284 28.9838 51.6416 30.0719C51.6416 31.1469 51.4036 32.1023 50.9277 32.9384C50.4518 33.7612 49.804 34.4114 48.9843 34.8891C48.1646 35.3536 47.2193 35.5858 46.1485 35.5858ZM46.1485 33.9536C46.8756 33.9536 47.5168 33.7877 48.0721 33.4559C48.6273 33.1242 49.0636 32.6663 49.3809 32.0824C49.6982 31.4985 49.8568 30.8284 49.8568 30.0719C49.8568 29.3155 49.6982 28.6454 49.3809 28.0615C49.0636 27.4643 48.6273 26.9998 48.0721 26.6681C47.5168 26.3363 46.8756 26.1704 46.1485 26.1704C45.4345 26.1704 44.7934 26.3363 44.2249 26.6681C43.6696 26.9998 43.2333 27.4643 42.916 28.0615C42.5987 28.6454 42.4401 29.3155 42.4401 30.0719C42.4401 30.8284 42.5987 31.4985 42.916 32.0824C43.2333 32.6663 43.6696 33.1242 44.2249 33.4559C44.7934 33.7877 45.4345 33.9536 46.1485 33.9536Z" fill="#073763"/>
<path d="M58.5186 35.5858C57.646 35.5858 56.8197 35.4531 56.0397 35.1877C55.2597 34.909 54.645 34.5308 54.1955 34.0531C54.0236 33.854 53.9509 33.6351 53.9773 33.3962C54.0038 33.1573 54.1227 32.9516 54.3343 32.7791C54.559 32.6066 54.7904 32.5336 55.0284 32.5602C55.2663 32.5867 55.4646 32.6929 55.6233 32.8787C55.8877 33.1706 56.2711 33.4228 56.7735 33.6351C57.2891 33.8474 57.8509 33.9536 58.4591 33.9536C59.3184 33.9536 59.953 33.8142 60.3629 33.5356C60.7859 33.2436 61.0041 32.8853 61.0173 32.4606C61.0173 32.0227 60.8124 31.6578 60.4025 31.3658C59.9927 31.0606 59.2722 30.8217 58.241 30.6492C56.9057 30.3971 55.934 30.0056 55.3258 29.4748C54.7177 28.944 54.4136 28.3003 54.4136 27.5439C54.4136 26.8671 54.5987 26.3098 54.9689 25.8718C55.3523 25.4206 55.848 25.0889 56.4562 24.8765C57.0775 24.6509 57.732 24.5381 58.4194 24.5381C59.292 24.5381 60.0588 24.6841 60.7198 24.9761C61.3808 25.2547 61.9097 25.6462 62.3063 26.1505C62.4782 26.3496 62.5509 26.5553 62.5244 26.7676C62.5112 26.9799 62.4054 27.1591 62.2071 27.305C62.0088 27.4245 61.7775 27.4643 61.5131 27.4245C61.2619 27.3847 61.0503 27.2719 60.8785 27.0861C60.548 26.741 60.1778 26.5022 59.7679 26.3695C59.3713 26.2235 58.9086 26.1505 58.3798 26.1505C57.7452 26.1505 57.2164 26.2699 56.7933 26.5088C56.3835 26.7477 56.1786 27.0728 56.1786 27.4842C56.1786 27.7496 56.2447 27.9818 56.3769 28.1809C56.5223 28.38 56.7867 28.5657 57.1701 28.7383C57.5535 28.8975 58.1021 29.0435 58.8161 29.1762C59.8076 29.362 60.5876 29.6075 61.1561 29.9127C61.7378 30.2179 62.1543 30.5762 62.4054 30.9876C62.6566 31.399 62.7822 31.8635 62.7822 32.381C62.7822 32.9915 62.6104 33.5422 62.2666 34.0332C61.9361 34.5109 61.4536 34.8891 60.819 35.1678C60.1844 35.4465 59.4176 35.5858 58.5186 35.5858Z" fill="#073763"/>
<path d="M78.5276 35.7053C77.3642 35.7053 76.3 35.5129 75.3349 35.128C74.3698 34.7299 73.5369 34.1725 72.8362 33.4559C72.1487 32.7393 71.6067 31.8966 71.21 30.9279C70.8266 29.9592 70.6349 28.8909 70.6349 27.7231C70.6349 26.5685 70.8266 25.5069 71.21 24.5381C71.6067 23.5694 72.1487 22.7267 72.8362 22.0101C73.5369 21.2935 74.3698 20.7428 75.3349 20.3579C76.3 19.9598 77.3642 19.7608 78.5276 19.7608C79.6778 19.7608 80.7355 19.9598 81.7006 20.3579C82.6657 20.7428 83.4986 21.2935 84.1993 22.0101C84.9 22.7267 85.442 23.5694 85.8254 24.5381C86.222 25.5069 86.4203 26.5685 86.4203 27.7231C86.4203 28.8909 86.222 29.9592 85.8254 30.9279C85.442 31.8966 84.9 32.7393 84.1993 33.4559C83.4986 34.1725 82.6657 34.7299 81.7006 35.128C80.7355 35.5129 79.6778 35.7053 78.5276 35.7053ZM78.5276 33.9934C79.4134 33.9934 80.2265 33.8341 80.9668 33.5156C81.7072 33.1972 82.3484 32.7592 82.8904 32.2019C83.4457 31.6312 83.8688 30.9677 84.1596 30.2113C84.4637 29.4416 84.6157 28.6122 84.6157 27.7231C84.6157 26.8339 84.4637 26.0112 84.1596 25.2547C83.8688 24.4983 83.4457 23.8348 82.8904 23.2642C82.3484 22.6935 81.7072 22.2556 80.9668 21.9504C80.2265 21.6319 79.4134 21.4726 78.5276 21.4726C77.6419 21.4726 76.8288 21.6319 76.0884 21.9504C75.3481 22.2556 74.7069 22.6935 74.1648 23.2642C73.6228 23.8348 73.1997 24.4983 72.8957 25.2547C72.5916 26.0112 72.4396 26.8339 72.4396 27.7231C72.4396 28.6122 72.5916 29.4416 72.8957 30.2113C73.1997 30.9677 73.6228 31.6312 74.1648 32.2019C74.7069 32.7592 75.3481 33.1972 76.0884 33.5156C76.8288 33.8341 77.6419 33.9934 78.5276 33.9934Z" fill="#073763"/>
<path d="M90.5431 35.5062C90.2787 35.5062 90.0606 35.42 89.8887 35.2475C89.7168 35.0617 89.6309 34.8361 89.6309 34.5707V20.8954C89.6309 20.6167 89.7168 20.3911 89.8887 20.2186C90.0606 20.0461 90.2787 19.9598 90.5431 19.9598C90.834 19.9598 91.0786 20.0726 91.2769 20.2982L100.24 32.2218V20.8954C100.24 20.6167 100.326 20.3911 100.498 20.2186C100.683 20.0461 100.908 19.9598 101.172 19.9598C101.437 19.9598 101.655 20.0461 101.827 20.2186C101.999 20.3911 102.085 20.6167 102.085 20.8954V34.5707C102.085 34.8361 101.999 35.0617 101.827 35.2475C101.655 35.42 101.437 35.5062 101.172 35.5062C101.04 35.5062 100.908 35.4797 100.776 35.4266C100.644 35.3735 100.538 35.2939 100.459 35.1877L91.4752 23.2642V34.5707C91.4752 34.8361 91.3892 35.0617 91.2174 35.2475C91.0455 35.42 90.8208 35.5062 90.5431 35.5062Z" fill="#073763"/>
<path d="M106.985 35.5062C106.721 35.5062 106.496 35.42 106.311 35.2475C106.139 35.0617 106.053 34.8361 106.053 34.5707V20.8954C106.053 20.6167 106.139 20.3911 106.311 20.2186C106.496 20.0461 106.721 19.9598 106.985 19.9598H116.088C116.352 19.9598 116.57 20.0461 116.742 20.2186C116.914 20.3778 117 20.5902 117 20.8556C117 21.0944 116.914 21.3001 116.742 21.4726C116.57 21.6319 116.352 21.7115 116.088 21.7115H107.917V26.8074H113.807C114.085 26.8074 114.303 26.8937 114.462 27.0662C114.634 27.2254 114.719 27.4311 114.719 27.6833C114.719 27.9354 114.634 28.1477 114.462 28.3202C114.303 28.4795 114.085 28.5591 113.807 28.5591H107.917V33.7545H116.088C116.352 33.7545 116.57 33.8408 116.742 34.0133C116.914 34.1725 117 34.3716 117 34.6105C117 34.8759 116.914 35.0948 116.742 35.2674C116.57 35.4266 116.352 35.5062 116.088 35.5062H106.985Z" fill="#073763"/>
</svg>
